# xmcd
#
# Track frame offsets:
#	150
#	15082
#	32037
#	56990
#	75401
#	90264
#	109900
#	136573
#	163238
#	188916
#	206773
#
# Disc length: 3085 seconds
#
# Revision: 1
# Processed by: cddbd v1.4PL0 Copyright (c) Steve Scherf et al.
# Submitted via: audiograbber 1.81.01
#
DISCID=820c0b0b
DTITLE=Lucinda Williams - Essence
DYEAR=1900
DGENRE=Country
TTITLE0=Lucinda Williams - Steal Your  Love
TTITLE1=Lucinda Williams - Reason To Cry
TTITLE2=Lucinda Williams - Out Of Touch
TTITLE3=Lucinda Williams - Lonely Girls
TTITLE4=Lucinda Williams - I Envy The Wind
TTITLE5=Lucinda Williams - Get Right With God
TTITLE6=Lucinda Williams - Essence
TTITLE7=Lucinda Williams - Bus To Baton Rouge
TTITLE8=Lucinda Williams - BrokenButterflies
TTITLE9=Lucinda Williams - Blue
TTITLE10=Lucinda Williams - Are You Down
EXTD=
EXTT0=
EXTT1=
EXTT2=
EXTT3=
EXTT4=
EXTT5=
EXTT6=
EXTT7=
EXTT8=
EXTT9=
EXTT10=
PLAYORDER=
